<svg id="user_down_right" xmlns="http://www.w3.org/2000/svg" width="93.948" height="199.359" viewBox="0 0 93.948 199.359">
  <path id="パス_6" data-name="パス 6" d="M-246.9,636.579l24.728-23.57-8.424-100-53.475-14.908-22.977,7.832V610.487l12.5,22.473Z" transform="translate(314.049 -439.281)" fill="#fdd7ad" stroke="#363636" stroke-width="4"/>
  <g id="長方形_2" data-name="長方形 2" fill="#fdd7ad" stroke="#363636" stroke-width="4">
    <rect width="52" height="111" rx="26" stroke="none"/>
    <rect x="2" y="2" width="48" height="107" rx="24" fill="none"/>
  </g>
  <g id="パス_7" data-name="パス 7" transform="translate(10.661 7)" fill="#fdc6ad">
    <path d="M 5.44087028503418 18.48711585998535 C 4.107430458068848 18.48711585998535 3.213210344314575 18.21133613586426 2.626710414886475 17.61921691894531 C 2.247140407562256 17.23736572265625 1.560760259628296 16.13435745239258 1.214410305023193 13.0231761932373 C 0.9857302904129028 10.96899700164795 0.9967603087425232 8.849376678466797 1.002060294151306 7.830746650695801 C 1.002780318260193 7.692566394805908 1.003400325775146 7.572106838226318 1.003400325775146 7.471676826477051 C 1.003400325775146 5.903526782989502 2.447760343551636 4.30600643157959 4.966130256652832 3.088746547698975 C 7.752800464630127 1.741796612739563 11.48009014129639 0.9999966025352478 15.46140003204346 0.9999966025352478 C 19.44271087646484 0.9999966025352478 23.17000961303711 1.741796612739563 25.95668029785156 3.088746547698975 C 28.47504997253418 4.30600643157959 29.91941070556641 5.903526782989502 29.91941070556641 7.471676826477051 C 29.91941070556641 8.421586990356445 29.67562103271484 10.7562370300293 29.13364028930664 12.97253704071045 C 28.25743103027344 16.55558586120605 27.26163101196289 17.28537750244141 26.9773006439209 17.4237060546875 C 26.18719482421875 17.80995559692383 25.2120361328125 17.9894962310791 23.90709495544434 17.9894962310791 C 23.90685653686523 17.9894962310791 23.90678977966309 17.9894962310791 23.90654945373535 17.9894962310791 C 22.7037296295166 17.98946571350098 21.39608001708984 17.83699607849121 20.01164054870605 17.67557716369629 C 18.52468109130859 17.50220680236816 16.98709106445312 17.32293701171875 15.46140003204346 17.32293701171875 C 13.59230041503906 17.32293701171875 11.69204044342041 17.64534568786621 9.854340553283691 17.9571361541748 C 8.247950553894043 18.22968673706055 6.730660438537598 18.48711585998535 5.44087028503418 18.48711585998535 Z" stroke="none"/>
    <path d="M 15.46140003204346 1.999996185302734 C 11.68333053588867 1.999996185302734 8.016571044921875 2.724996566772461 5.401309967041016 3.989086151123047 C 3.273651123046875 5.017497062683105 2.003400802612305 6.319406509399414 2.003400802612305 7.471676826477051 C 2.003400802612305 7.573566436767578 2.002780914306641 7.695766448974609 2.002050399780273 7.835947036743164 C 1.99683952331543 8.835726737976074 1.986021041870117 10.91609668731689 2.208271026611328 12.91252708435059 C 2.550390243530273 15.98574638366699 3.206600189208984 16.78410720825195 3.337190628051758 16.91549682617188 C 3.580249786376953 17.16088676452637 4.062759399414062 17.48711585998535 5.44087028503418 17.48711585998535 C 6.646419525146484 17.48711585998535 8.123380661010742 17.23652648925781 9.68705940246582 16.97122573852539 C 11.56558990478516 16.65250778198242 13.50806999206543 16.32293701171875 15.46140003204346 16.32293701171875 C 17.04511070251465 16.32293701171875 18.61194038391113 16.5056266784668 20.1271800994873 16.68230628967285 C 21.48202896118164 16.84028625488281 22.76173973083496 16.9894962310791 23.90650939941406 16.9894962310791 C 25.03560638427734 16.9894962310791 25.89441299438477 16.83867263793945 26.53512573242188 16.52676582336426 C 26.77132034301758 16.38425064086914 27.52232360839844 15.41056346893311 28.19026947021484 12.61920642852783 C 28.69318962097168 10.51750659942627 28.91941070556641 8.343856811523438 28.91941070556641 7.471676826477051 C 28.91941070556641 6.319406509399414 27.64916038513184 5.017497062683105 25.52149963378906 3.989086151123047 C 22.90624046325684 2.724996566772461 19.23947906494141 1.999996185302734 15.46140003204346 1.999996185302734 M 15.46140003204346 -3.814697265625e-06 C 23.99863052368164 -3.814697265625e-06 30.91941070556641 3.345186233520508 30.91941070556641 7.471676826477051 C 30.91941070556641 9.522546768188477 29.9159107208252 17.10613632202148 27.41477012634277 18.32293701171875 C 26.39201545715332 18.82292175292969 25.20043182373047 18.989501953125 23.90651512145996 18.989501953125 C 21.31915664672852 18.989501953125 18.32404518127441 18.32293701171875 15.46140003204346 18.32293701171875 C 12.04071617126465 18.32293701171875 8.314094543457031 19.48711395263672 5.44087028503418 19.48711395263672 C 4.004390716552734 19.48711395263672 2.781024932861328 19.19601631164551 1.916240692138672 18.32293701171875 C -0.1675701141357422 16.22665596008301 0.003400802612304688 9.118146896362305 0.003400802612304688 7.471676826477051 C 0.003400802612304688 3.345186233520508 6.92418098449707 -3.814697265625e-06 15.46140003204346 -3.814697265625e-06 Z" stroke="none" fill="#363636"/>
  </g>
</svg>
