<svg xmlns="http://www.w3.org/2000/svg" width="250" height="250" viewBox="0 0 250 250">
  <g id="iconfinder_24-cry_4927981" transform="translate(-4.242 -4.242)">
    <g id="Layer_2" data-name="Layer 2" transform="translate(4.242 4.242)">
      <circle id="楕円形_4" data-name="楕円形 4" cx="125" cy="125" r="125" fill="#f9bf44" />
    </g>
    <g id="Layer_1" data-name="Layer 1" transform="translate(49.893 103.39)">
      <path id="パス_5" data-name="パス 5" d="M78.093,41.771,67.15,30.829a4.5,4.5,0,0,0-6.35,0L49.857,41.771a19.969,19.969,0,1,0,28.235,0Z" transform="translate(89.43 -14.839)" fill="#58b3de" />
      <path id="パス_6" data-name="パス 6" d="M119.48,71.386a4.5,4.5,0,0,1-4.053-2.522,48.036,48.036,0,0,0-86.214,0A4.5,4.5,0,1,1,21.129,64.9a57.038,57.038,0,0,1,102.377,0,4.5,4.5,0,0,1-4.053,6.485Z" transform="translate(7.649 -2.578)" fill="#382a12" />
      <path id="パス_7" data-name="パス 7" d="M42.46,49.927a30.563,30.563,0,0,1-27.618-17.18,4.5,4.5,0,1,1,8.084-3.968,21.773,21.773,0,0,0,39.069,0,4.5,4.5,0,1,1,8.084,3.968A30.563,30.563,0,0,1,42.46,49.927Z" transform="translate(-14.379 -26.259)" fill="#382a12" />
      <path id="パス_8" data-name="パス 8" d="M64.447,49.927a30.563,30.563,0,0,1-27.609-17.18,4.5,4.5,0,1,1,8.084-3.968,21.768,21.768,0,0,0,39.064,0,4.5,4.5,0,1,1,8.084,3.968A30.563,30.563,0,0,1,64.447,49.927Z" transform="translate(62.677 -26.259)" fill="#382a12" />
    </g>
  </g>
</svg>
