<svg xmlns="http://www.w3.org/2000/svg" width="250" height="250" viewBox="0 0 250 250">
  <g id="iconfinder_33-tired_4927990_1_" data-name="iconfinder_33-tired_4927990 (1)" transform="translate(-4.242 -4.242)">
    <g id="Layer_2" data-name="Layer 2" transform="translate(4.242 4.242)">
      <circle id="楕円形_6" data-name="楕円形 6" cx="125" cy="125" r="125" fill="#f9bf44" />
    </g>
    <g id="Layer_1" data-name="Layer 1" transform="translate(49.873 112.751)">
      <path id="パス_12" data-name="パス 12" d="M29.361,49.81a4.5,4.5,0,0,1-1.351-8.795,98.656,98.656,0,0,1,59.285,0A4.5,4.5,0,0,1,84.566,49.6a89.479,89.479,0,0,0-53.822,0A4.5,4.5,0,0,1,29.361,49.81Z" transform="translate(22.394 0.104)" fill="#382a12" />
      <path id="パス_13" data-name="パス 13" d="M63.347,37.344H18.878a4.5,4.5,0,0,1,0-9.006H63.347a4.5,4.5,0,1,1,0,9.006Z" transform="translate(-14.375 -28.338)" fill="#382a12" />
      <path id="パス_14" data-name="パス 14" d="M85.472,37.344H41a4.5,4.5,0,0,1,0-9.006H85.472a4.5,4.5,0,0,1,0,9.006Z" transform="translate(63.133 -28.338)" fill="#382a12" />
    </g>
  </g>
</svg>
