<svg xmlns="http://www.w3.org/2000/svg" width="250" height="250" viewBox="0 0 250 250">
  <g id="iconfinder_06-smile_4927962" transform="translate(-4.242 -4.242)">
    <g id="Layer_2" data-name="Layer 2" transform="translate(4.242 4.242)">
      <circle id="楕円形_5" data-name="楕円形 5" cx="125" cy="125" r="125" transform="translate(0 0)" fill="#f9bf44" />
    </g>
    <g id="Layer_1" data-name="Layer 1" transform="translate(51.63 105.211)">
      <path id="パス_9" data-name="パス 9" d="M41.272,50.349a4.5,4.5,0,0,1-4.053-6.485,30.77,30.77,0,0,1,55.232,0,4.5,4.5,0,0,1-8.083,3.972,21.768,21.768,0,0,0-39.065,0A4.5,4.5,0,0,1,41.272,50.349Z" transform="translate(62.287 -26.657)" fill="#382a12" />
      <path id="パス_10" data-name="パス 10" d="M66.429,50.356a4.5,4.5,0,0,1-4.053-2.522,21.769,21.769,0,0,0-39.065,0,4.5,4.5,0,1,1-8.083-3.972,30.77,30.77,0,0,1,55.232,0,4.5,4.5,0,0,1-4.053,6.485Z" transform="translate(-14.765 -26.664)" fill="#382a12" />
      <path id="パス_11" data-name="パス 11" d="M167.841,37.077a4.377,4.377,0,0,0-3.783-2.116H19.415a4.5,4.5,0,0,0-4.008,6.485,85.07,85.07,0,0,0,152.659,0A4.337,4.337,0,0,0,167.841,37.077Z" transform="translate(-14.125 2.4)" fill="#c15f1e" />
    </g>
  </g>
</svg>
