<svg xmlns="http://www.w3.org/2000/svg" width="115.77" height="200.408" viewBox="0 0 115.77 200.408">
  <g id="thumbup-opp-right" transform="translate(2.421 2.532)">
    <path id="パス_1" data-name="パス 1" d="M-364.513,149.773h-11.244l-10.588,12.1,8.6,15.883-8.6,13.066,8.6,16.122-7.379,13.818,11.053,16.486-6.373,13.59,10.552,15.018H-297l11.161-12.343-4.232-13.366,10.292-17.123-2.979-12.742,7.523-19.46-10.6-16.259,6.06-15.958-11.382-8.827L-331.1,130.505l-1.272-48.052-16.161-12.479-15.98,12.479Z" transform="translate(386.345 -69.975)" fill="#fdd7ad" stroke="#363636" stroke-width="4"/>
    <line id="線_1" data-name="線 1" x1="50" transform="translate(13.269 109.525)" fill="none" stroke="#363636" stroke-width="4"/>
    <line id="線_2" data-name="線 2" x1="50" transform="translate(14.269 137.525)" fill="none" stroke="#363636" stroke-width="4"/>
    <line id="線_3" data-name="線 3" x1="50" transform="translate(14.269 165.525)" fill="none" stroke="#363636" stroke-width="4"/>
    <line id="線_4" data-name="線 4" x1="66" transform="translate(25.269 79.525)" fill="none" stroke="#363636" stroke-width="4"/>
  </g>
</svg>
