<svg xmlns="http://www.w3.org/2000/svg" width="115.77" height="142.851" viewBox="0 0 115.77 142.851">
  <g id="thumbdown-opp-left" transform="translate(-45.42 -125)">
    <path id="パス_1" data-name="パス 1" d="M-296.7,149.773h10.88l10.588,12.1-8.6,15.883,8.6,13.066-8.6,16.122,7.379,13.818L-287.5,237.242l6.373,13.59-10.552,15.018h-72.9l-11.161-12.343,4.232-13.366L-381.8,223.019l2.979-12.742-7.523-19.46,10.6-16.259L-381.8,158.6l11.382-8.827,39.672-11.012S-319.6,158.6-311.135,158.6-296.7,149.773-296.7,149.773Z" transform="translate(434)" fill="#fdd7ad" stroke="#363636" stroke-width="4"/>
    <line id="線_1" data-name="線 1" x2="50" transform="translate(95.5 179.5)" fill="none" stroke="#363636" stroke-width="4"/>
    <line id="線_2" data-name="線 2" x2="50" transform="translate(94.5 207.5)" fill="none" stroke="#363636" stroke-width="4"/>
    <line id="線_3" data-name="線 3" x2="50" transform="translate(94.5 235.5)" fill="none" stroke="#363636" stroke-width="4"/>
    <line id="線_4" data-name="線 4" x2="66" transform="translate(67.5 149.5)" fill="none" stroke="#363636" stroke-width="4"/>
    <g id="パス_2" data-name="パス 2" transform="translate(102 125)" fill="#fdd7ad">
      <path d="M 24 34 C 20.96546936035156 34 18.02586936950684 33.55558013916016 15.2628698348999 32.6790885925293 C 12.61970996856689 31.84062004089355 10.25331974029541 30.64583015441895 8.229439735412598 29.12792015075684 C 4.212319850921631 26.11507987976074 2 22.16311073303223 2 18 C 2 13.83689022064209 4.212319850921631 9.884920120239258 8.229439735412598 6.872079849243164 C 10.25331974029541 5.354169845581055 12.61970996856689 4.159379959106445 15.2628698348999 3.320909976959229 C 18.02586936950684 2.444420099258423 20.96546936035156 2 24 2 C 27.03453063964844 2 29.97413063049316 2.444420099258423 32.73712921142578 3.320909976959229 C 35.38029098510742 4.159379959106445 37.74668121337891 5.354169845581055 39.77056121826172 6.872079849243164 C 43.78768157958984 9.884920120239258 46 13.83689022064209 46 18 C 46 22.16311073303223 43.78768157958984 26.11507987976074 39.77056121826172 29.12792015075684 C 37.74668121337891 30.64583015441895 35.38029098510742 31.84062004089355 32.73712921142578 32.6790885925293 C 29.97413063049316 33.55558013916016 27.03453063964844 34 24 34 Z" stroke="none"/>
      <path d="M 24 4 C 21.17091941833496 4 18.43478965759277 4.412919998168945 15.86761093139648 5.227289199829102 C 13.43920135498047 5.997640609741211 11.27309036254883 7.089340209960938 9.429439544677734 8.472080230712891 C 5.928211212158203 11.09799957275391 4 14.48175048828125 4 18 C 4 21.51824951171875 5.928211212158203 24.90200042724609 9.429439544677734 27.52791976928711 C 11.27309036254883 28.91065979003906 13.43920135498047 30.00235939025879 15.86761093139648 30.77270889282227 C 18.43478965759277 31.58708000183105 21.17091941833496 32 24 32 C 26.82908058166504 32 29.56521034240723 31.58708000183105 32.13238906860352 30.77270889282227 C 34.56079864501953 30.00235939025879 36.72690963745117 28.91065979003906 38.57056045532227 27.52791976928711 C 42.0717887878418 24.90200042724609 44 21.51824951171875 44 18 C 44 14.48175048828125 42.0717887878418 11.09799957275391 38.57056045532227 8.472080230712891 C 36.72690963745117 7.089340209960938 34.56079864501953 5.997640609741211 32.13238906860352 5.227289199829102 C 29.56521034240723 4.412919998168945 26.82908058166504 4 24 4 M 24 0 C 37.25482940673828 0 48 8.058879852294922 48 18 C 48 27.94112014770508 37.25482940673828 36 24 36 C 10.74517059326172 36 0 27.94112014770508 0 18 C 0 8.058879852294922 10.74517059326172 0 24 0 Z" stroke="none" fill="#363636"/>
    </g>
    <g id="パス_3" data-name="パス 3" transform="translate(110.42 126)" fill="#fdc6ad">
      <path d="M 15.4580078125 13.943359375 C 11.47669792175293 13.943359375 7.749407768249512 13.20156002044678 4.962728023529053 11.85460948944092 C 2.444357872009277 10.63735008239746 0.9999977946281433 9.039829254150391 0.9999977946281433 7.4716796875 C 0.9999977946281433 5.903529644012451 2.444357872009277 4.306009769439697 4.962728023529053 3.088749647140503 C 7.749407768249512 1.741799712181091 11.47669792175293 0.9999997019767761 15.4580078125 0.9999997019767761 C 19.43931770324707 0.9999997019767761 23.16660690307617 1.741799712181091 25.95328712463379 3.088749647140503 C 28.47165870666504 4.306009769439697 29.91601753234863 5.903529644012451 29.91601753234863 7.4716796875 C 29.91601753234863 9.039829254150391 28.47165870666504 10.63735008239746 25.95328712463379 11.85460948944092 C 23.16660690307617 13.20156002044678 19.43931770324707 13.943359375 15.4580078125 13.943359375 Z" stroke="none"/>
      <path d="M 15.4580078125 2 C 11.6799373626709 2 8.013168334960938 2.72499942779541 5.397907257080078 3.989089965820312 C 3.270248413085938 5.017499923706055 1.999998092651367 6.319409370422363 1.999998092651367 7.4716796875 C 1.999998092651367 8.62394905090332 3.270248413085938 9.925859451293945 5.397907257080078 10.95426940917969 C 8.013168334960938 12.21835994720459 11.6799373626709 12.943359375 15.4580078125 12.943359375 C 19.2360782623291 12.943359375 22.90284729003906 12.21835994720459 25.51810836791992 10.95426940917969 C 27.64576721191406 9.925859451293945 28.91601753234863 8.62394905090332 28.91601753234863 7.4716796875 C 28.91601753234863 6.319409370422363 27.64576721191406 5.017499923706055 25.51810836791992 3.989089965820312 C 22.90284729003906 2.72499942779541 19.2360782623291 2 15.4580078125 2 M 15.4580078125 0 C 23.9952278137207 0 30.91601753234863 3.345190048217773 30.91601753234863 7.4716796875 C 30.91601753234863 11.59816932678223 23.9952278137207 14.943359375 15.4580078125 14.943359375 C 6.920787811279297 14.943359375 -1.9073486328125e-06 11.59816932678223 -1.9073486328125e-06 7.4716796875 C -1.9073486328125e-06 3.345190048217773 6.920787811279297 0 15.4580078125 0 Z" stroke="none" fill="#363636"/>
    </g>
  </g>
</svg>
