<svg xmlns="http://www.w3.org/2000/svg" width="115.77" height="200.408" viewBox="0 0 115.77 200.408">
  <g id="thumbup-opp-left" transform="translate(-45.42 -67.443)">
    <path id="パス_1" data-name="パス 1" d="M-297.063,149.773h11.244l10.588,12.1-8.6,15.883,8.6,13.066-8.6,16.122,7.379,13.818L-287.5,237.242l6.373,13.59-10.552,15.018h-72.9l-11.161-12.343,4.232-13.366L-381.8,223.019l2.979-12.742-7.523-19.46,10.6-16.259L-381.8,158.6l11.382-8.827,39.942-19.268,1.272-48.052,16.161-12.479,15.98,12.479Z" transform="translate(434)" fill="#fdd7ad" stroke="#363636" stroke-width="4"/>
    <line id="線_1" data-name="線 1" x2="50" transform="translate(95.5 179.5)" fill="none" stroke="#363636" stroke-width="4"/>
    <line id="線_2" data-name="線 2" x2="50" transform="translate(94.5 207.5)" fill="none" stroke="#363636" stroke-width="4"/>
    <line id="線_3" data-name="線 3" x2="50" transform="translate(94.5 235.5)" fill="none" stroke="#363636" stroke-width="4"/>
    <line id="線_4" data-name="線 4" x2="66" transform="translate(67.5 149.5)" fill="none" stroke="#363636" stroke-width="4"/>
  </g>
</svg>
