<svg xmlns="http://www.w3.org/2000/svg" width="150" height="250" viewBox="0 0 150 250">
  <g id="グループ_5" data-name="グループ 5" transform="translate(-1348 -107)">
    <rect id="長方形_14" data-name="長方形 14" width="150" height="250" transform="translate(1348 107)" fill="none" />
    <g id="opp-left-up" transform="translate(1326 -457.999)">
      <g id="opp-left-body-up" transform="translate(408.345 504.559)" fill="#fdd7ad">
        <path d="M -266.6148986816406 308.3269348144531 L -363.0953674316406 308.3269348144531 L -376.0763549804688 289.8518676757812 L -367.9659423828125 272.5558776855469 L -367.4859008789062 271.5321655273438 L -368.1155395507812 270.593017578125 L -382.3676452636719 249.3350830078125 L -372.9722290039062 231.7408294677734 L -372.4694519042969 230.7992553710938 L -372.9717712402344 229.8574829101562 L -384.0214233398438 209.1414337158203 L -373.0657958984375 192.4960174560547 L -372.4079895019531 191.4964904785156 L -372.9776611328125 190.4442291259766 L -383.8507690429688 170.3615875244141 L -367.4994201660156 155.0882263183594 L -366.8646240234375 154.4952850341797 L -366.8646240234375 153.6266479492188 L -366.8646240234375 101.9933242797852 C -366.8646240234375 89.72655487060547 -365.2908630371094 81.38868713378906 -361.9120178222656 75.75355529785156 C -360.06982421875 72.68122100830078 -357.7066345214844 70.44149017333984 -354.6874389648438 68.90628814697266 C -351.4692687988281 67.26995849609375 -347.4123229980469 66.44025421142578 -342.6292419433594 66.44025421142578 C -342.5431213378906 66.44025421142578 -342.4559020996094 66.44052124023438 -342.3692016601562 66.44105529785156 C -337.4569091796875 66.47088623046875 -333.1173706054688 67.32645416259766 -329.4711303710938 68.98398590087891 C -326.0089721679688 70.55789184570312 -323.0838317871094 72.89865875244141 -320.7770080566406 75.94129180908203 C -316.2403564453125 81.92495727539062 -313.9400329589844 90.69012451171875 -313.9400329589844 101.9933242797852 L -313.9400329589844 140.4324493408203 L -313.9400329589844 142.0032501220703 L -312.4139709472656 142.37548828125 L -258.733642578125 155.4685821533203 L -244.8746490478516 166.2161254882812 L -252.5297393798828 186.3751525878906 L -252.8907775878906 187.3258819580078 L -252.3352355957031 188.1776885986328 L -238.5801391601562 209.2687530517578 L -248.3662719726562 234.5837249755859 L -248.5887756347656 235.1592559814453 L -248.4483032226562 235.7601165771484 L -244.6117553710938 252.1713104248047 L -258.0875854492188 274.591064453125 L -258.5525817871094 275.3646545410156 L -258.2801208496094 276.2251586914062 L -252.9131317138672 293.1742553710938 L -266.6148986816406 308.3269348144531 Z" stroke="none" />
        <path d="M -342.6300964355469 68.44024658203125 C -347.0942687988281 68.44024658203125 -350.845703125 69.19686889648438 -353.7801208496094 70.68917846679688 C -356.4541015625 72.04898071289062 -358.552734375 74.04217529296875 -360.1959838867188 76.7825927734375 C -361.8374633789062 79.52008056640625 -363.0105895996094 82.9525146484375 -363.7824096679688 87.27603149414062 C -364.5106201171875 91.3551025390625 -364.8646240234375 96.16915893554688 -364.8646240234375 101.9933166503906 L -364.8646240234375 153.6266632080078 L -364.8646240234375 155.3639526367188 L -366.1342163085938 156.5498046875 L -381.3562316894531 170.768310546875 L -371.2189331054688 189.4919891357422 L -370.0794677734375 191.5965270996094 L -371.3952026367188 193.5955657958984 L -381.6976013183594 209.24853515625 L -371.2071533203125 228.9161987304688 L -370.2024536132812 230.7997741699219 L -371.2080078125 232.6828765869141 L -380.0380249023438 249.2183532714844 L -366.454345703125 269.4792785644531 L -365.195068359375 271.3575439453125 L -366.1551208496094 273.4049987792969 L -373.773193359375 289.6509704589844 L -362.0563049316406 306.326904296875 L -267.5028381347656 306.326904296875 L -255.166259765625 292.6839904785156 L -260.1867980957031 276.8288879394531 L -260.7317504882812 275.10791015625 L -259.8017883300781 273.5606994628906 L -246.7439880371094 251.8364562988281 L -250.3958129882812 236.2153778076172 L -250.6767272949219 235.013671875 L -250.2317504882812 233.8625640869141 L -240.8150024414062 209.503173828125 L -254.0104675292969 189.2702026367188 L -255.1215209960938 187.5665588378906 L -254.3994750976562 185.6651306152344 L -247.269775390625 166.8896331787109 L -259.6220397949219 157.3105316162109 L -312.8878784179688 144.3185272216797 L -315.9400329589844 143.5740966796875 L -315.9400329589844 140.4324493408203 L -315.9400329589844 101.9933166503906 C -315.9400329589844 96.58053588867188 -316.4906311035156 91.72210693359375 -317.5765686035156 87.55294799804688 C -318.6507873535156 83.42877197265625 -320.2637634277344 79.92855834960938 -322.3706970214844 77.14959716796875 C -324.4747619628906 74.37442016601562 -327.1422119140625 72.23965454101562 -330.2988586425781 70.80471801757812 C -333.6871643066406 69.26437377929688 -337.7523498535156 68.46908569335938 -342.3807067871094 68.44097900390625 C -342.4635925292969 68.44049072265625 -342.5469055175781 68.44024658203125 -342.6293334960938 68.44024658203125 L -342.6300964355469 68.44024658203125 M -342.6292724609375 64.44021606445312 C -342.5390930175781 64.44024658203125 -342.4478454589844 64.44052124023438 -342.3570861816406 64.44107055664062 C -321.1163024902344 64.570068359375 -311.9400329589844 79.23965454101562 -311.9400329589844 101.9933166503906 C -311.9400329589844 124.7469482421875 -311.9400329589844 140.4324493408203 -311.9400329589844 140.4324493408203 L -257.8451538085938 153.6266632080078 L -242.4795532226562 165.5426025390625 L -250.6600341796875 187.0851287841797 L -236.3452758789062 209.0343475341797 L -246.5008239746094 235.3048400878906 L -242.4795532226562 252.5061645507812 L -256.3734130859375 275.6213989257812 L -250.6600341796875 293.6644897460938 L -265.7269897460938 310.326904296875 L -364.1344604492188 310.326904296875 L -378.3795166015625 290.052734375 L -369.7767333984375 271.7067260742188 L -384.697265625 249.4518127441406 L -374.7364501953125 230.7987060546875 L -386.3452758789062 209.0343475341797 L -374.7364501953125 191.3964538574219 L -386.3452758789062 169.9548797607422 L -368.8646240234375 153.6266632080078 C -368.8646240234375 153.6266632080078 -368.8646240234375 124.7350616455078 -368.8646240234375 101.9933166503906 C -368.8646240234375 79.34872436523438 -363.6435852050781 64.43984985351562 -342.6292724609375 64.44021606445312 Z" stroke="none" fill="#363636" />
      </g>
      <g id="opp-lines">
        <line id="line-4" x1="65.86" transform="translate(47.138 775.743)" fill="none" stroke="#363636" stroke-width="4" />
        <line id="line-3" x1="65.86" transform="translate(47.138 734.743)" fill="none" stroke="#363636" stroke-width="4" />
        <line id="line-2" x1="65.86" transform="translate(47.5 695.743)" fill="none" stroke="#363636" stroke-width="4" />
        <path id="line-1" d="M93,0H4.3" transform="translate(47.5 657.817)" fill="none" stroke="#363636" stroke-width="4" />
      </g>
    </g>
  </g>
</svg>
