<svg xmlns="http://www.w3.org/2000/svg" xmlns:xlink="http://www.w3.org/1999/xlink" width="175" height="175" viewBox="0 0 175 175">
  <defs>
    <clipPath id="clip-path">
      <rect id="長方形_14" data-name="長方形 14" width="175" height="175" transform="translate(801 725)" fill="#fff" stroke="#707070" stroke-width="1" opacity="0.571"/>
    </clipPath>
  </defs>
  <g id="マスクグループ_1" data-name="マスクグループ 1" transform="translate(-801 -725)" clip-path="url(#clip-path)">
    <g id="グループ_16" data-name="グループ 16">
      <g id="body">
        <path id="hand_right" d="M869.054,876.847c1.8-1.238,3.915,2.015,3.225,4.141-15.272,22.55-12.017,20.73-17.49,31.443a7.748,7.748,0,0,1-1.256,5.449c-1.431,2.309-4.634,8.15-5.891,7.393s1.041-5.285,1.041-5.285-4.68,6.383-6.148,5.87S845,918.446,845,918.446s-4.977,5.814-5.817,4.672,3.649-7.577,3.649-7.577-4.813,4.371-5.8,3.51,5.317-8.906,5.317-8.906-4.468.41-4.384-1.092,6.629-2.445,6.629-2.445S859.447,882.932,869.054,876.847Z" fill="#fbddba"/>
        <path id="pants_dark" d="M865.962,919.155c-.073,6.444.107,22.434,0,29.608,9.047,5.266,14.836.179,14.836.179V929.431S869.671,914.322,865.962,919.155Z" fill="#222"/>
        <path id="pants_light" d="M863.119,907.005c1.3-3.659,46.524.346,46.524.346s.6,12.267-2.579,15.93c-.662,12.1-.018,24.972-.232,32.883-2.531,2.841-11.775,5.113-15.517,0-.169-3.948-.107-16.4-.318-20.086C861.163,939.774,863.383,911.134,863.119,907.005Z" fill="#444"/>
        <path id="wear_dark" d="M874.288,871.3l1.959.709s-5.615,10.677-5.31,9.321-3.972-4.433-3.972-4.433Z" fill="#1f3369" stroke="#707070" stroke-width="0.2"/>
        <path id="wear_inner" d="M876.919,875.93c.242,2.712,4.936,5.694,11.254,2.515-.234,3.634-12.905,13.8-12.732,12.49S873.715,878.821,876.919,875.93Z" fill="#444" opacity="0.997"/>
        <path id="wear_medium" d="M895.548,880.759c-6.362-1.16-29.479,41.079-6.79,38.633,4.63-.419,19.2-2.18,20.835-11.8C912.693,895.477,902.575,884.585,895.548,880.759Z" fill="#1f3369"/>
        <path id="neck" d="M875.929,876.633s-2.211,2.581-.339,5.073,5.592,3.308,9.9,1.118a15.827,15.827,0,0,0,6.322-6.009Z" transform="translate(1.371 -3.852)" fill="#f2c596"/>
        <path id="パス_54" data-name="パス 54" d="M904.028,877.1c-7.912-7.009-13.868-1.258-4.585,6.642s15.5,22.2,17.092,29.47c.327.661-.717,11.894.958,11.893s1.8-3.76,2.074-3.211c1.381,2.777,4.687,8.572,6.089,8.26s-.823-6.609-.474-6.153c1.741,2.278,3.063,6.378,4.4,6.054s-1.1-7.323-.606-7.2c.87.229,3.183,5.6,4.566,5.1s-1.671-7.15-1.091-7.177c.519.041,2.292,3.315,3.323,2.231s-4.573-9.115-6.8-11.262C924.114,899.382,912.154,883.232,904.028,877.1Z" fill="#fbddba"/>
        <path id="wear_light" d="M894.811,871.378c-5.1,3.518-17.164,15.135-17.164,15.135V870.777s-.878-3.163-2.724,0c-4.636,7.94-14.409,29.79-11.169,38.614,2.1,8.08,21.085,11.96,30.732,9.15,16.506-3.782.827-37.56.827-37.56a27.269,27.269,0,0,1,4.445,3.043c.736-2.5,1.862-3.943,5.541-6.235C902.56,875.3,899.31,873.446,894.811,871.378Z" fill="#2e4b9b"/>
      </g>
      <path id="face" d="M850.3,768.768,820.353,809.3s-14.732,10.909-1.062,24.394c1.477,35.61,80.628,58.548,122.585,20.283,22.244-4.17,10.064-31.262-1.174-29.205C917.808,803.471,850.3,768.768,850.3,768.768Z" fill="#fbddba"/>
      <path id="ear_right" d="M820.412,814.551c-2.019,4.825-1.6,5.452-1.449,12.585-.57-.556-3.062-3.62-2.453-6.519a12.393,12.393,0,0,1,3.9-6.066Z" fill="#f2c596"/>
      <path id="mouse" d="M1220.095,854.052c-2.956.009-2.827,6.732-1.388,8.316s5.3.779,5.881-.517S1223.051,854.043,1220.095,854.052Z" transform="translate(-347)" fill="#f69698"/>
      <path id="noze" d="M871.127,827.7s.072,5.151,0,8.712c-9.758-.234-5.393,9.439,3.931,9.047a14.9,14.9,0,0,0,6.855-1.68c-4.833,3.132-8.748,3.641-12.037,3.1-4.966-.8-7.274-5.415-6.065-8.935a5.2,5.2,0,0,1,5.2-3.15c.469-1.615.406-5.245.862-6.809C870.258,826.672,871.127,827.7,871.127,827.7Z" fill="#e6b07f"/>
      <path id="前面オブジェクトで型抜き_2" data-name="前面オブジェクトで型抜き 2" d="M92.475,34.2h0C80.22,34.2,62.487,25.786,60.6,23.735c-.808-.8-.85-2.528-.888-4.05a7.563,7.563,0,0,0-.355-2.756.361.361,0,0,0,.046-.39c-.421-.791-4.151-.957-7.206-.957-2.782,0-5.1.135-5.741.176a2.7,2.7,0,0,0-.363,1.48,4.679,4.679,0,0,1-1.264,3.338c-.367,1.218-3.206,2.6-7.594,3.7a65.254,65.254,0,0,1-15.183,1.81A40.391,40.391,0,0,1,9.817,24.44,9.223,9.223,0,0,1,5.48,21.508a20.085,20.085,0,0,1-3.212-5.189A24.468,24.468,0,0,1,.082,4.7C.384,1.966,1.5.412,3.233.323A39.646,39.646,0,0,1,8.84,0,151.941,151.941,0,0,1,36.3,3.034c7.992,2.8,8.378,3.67,9.409,6,.2.458.433.977.75,1.577a35,35,0,0,0,6.441.565c1.146,0,2.225-.043,3.178-.082h.094c.994-.04,1.931-.078,2.879-.078.556,0,1.064.013,1.552.04.455-.1.6-.369.806-.749a3.98,3.98,0,0,1,2.039-1.9c.821-.634,4-1,8.712-1A139.448,139.448,0,0,1,93.61,9.2a57.783,57.783,0,0,1,9.255,2.211c2.663.935,4.319,1.962,4.923,3.054.48.914-.068,4.01-1.273,7.2a28.829,28.829,0,0,1-3.892,7.163,14.656,14.656,0,0,1-6.252,5.03,20.487,20.487,0,0,1-3.9.342ZM73.82,10.145c-4.008,0-7.045.329-8.332.9-.8.538-1.473,2.039-1.748,3.919a14.424,14.424,0,0,0,.688,6.752c2.464,2.185,6.61,4.344,11.374,5.921a52.7,52.7,0,0,0,16.275,2.7c.956,0,1.907-.031,2.828-.092h.007c.634,0,1.633-1.106,2.673-2.958a25.5,25.5,0,0,0,2.585-6.85c.4-1.932.657-4.613-.442-6.416C91.522,11.16,80.643,10.144,73.82,10.145ZM12.889,3c-2.7,0-4.478.17-4.875.465-.943.827-1.64,3.766-1.656,6.987a19.868,19.868,0,0,0,.727,5.6,9.436,9.436,0,0,0,2.586,4.479c2.221.78,7.09,1.227,13.357,1.227,8.246,0,15.934-.734,17.5-1.669,1.688-1,2.352-3.784,2.6-5.351a13.453,13.453,0,0,0-.179-5.809C40.5,6.575,34.272,5.156,29.483,4.38A111.779,111.779,0,0,0,12.889,3Z" transform="translate(821.085 815.987)" fill="#803838"/>
      <g id="eye_right" transform="translate(-401 -7)">
        <path id="outer" d="M9,0A9,9,0,1,1,0,9,9,9,0,0,1,9,0Z" transform="translate(1241 827)" fill="#5e442c"/>
        <circle id="inner" cx="4" cy="4" r="4" transform="translate(1246 832)" fill="#f9f9f9"/>
      </g>
      <g id="eye_left" transform="translate(-347)">
        <circle id="outer-2" data-name="outer" cx="9" cy="9" r="9" transform="translate(1241 827)" fill="#5e442c"/>
        <circle id="inner-2" data-name="inner" cx="4" cy="4" r="4" transform="translate(1246 832)" fill="#fff"/>
      </g>
      <path id="eyeblow_right" d="M1260.995,824.888c.33-.707-.4-3.377-2.109-4.672a54.908,54.908,0,0,0-18.674-2.985c-4.4.62-7.122,5.572-7.122,5.572S1242.183,818.071,1260.995,824.888Z" transform="translate(-401 -7)" fill="#3c3f2e"/>
      <path id="eyeblow_left" d="M1292.644,824.577c-1.261.408-2.388,4.307-2.388,4.307s20.19-2.372,26.722,3.423c.187-3.015-1.985-5.82-6.408-6.93S1293.9,824.168,1292.644,824.577Z" transform="translate(-401 -7)" fill="#3c3f2e"/>
      <circle id="mole" cx="1" cy="1" r="1" transform="translate(856 859)" fill="#414141"/>
      <path id="ear_left" d="M1289.135,833.269c.275-1.191,9.369,2.062,7.412,9.629s-11.11,7.9-10.175,6.809S1290.6,836.77,1289.135,833.269Z" transform="translate(-347)" fill="#f2c596"/>
      <path id="hair_dark" d="M819.6,824.732c4-27.883,16.972-15.674,33.349-45.038,10.948,26.6,46.847,36.121,52.779,35.676-6.435-2.885-23.346-10.155-26.961-23.589,9.334,8.958,37.288,28.415,56.7,32.328.892,7.976,1.617,5.221,2.433,18.661,2.652-6.33,2.045-16.008,2.045-16.008s9.538,1.456,12.044,5.819c.13-1.116,0-6.015,0-6.015s8.034-.181,11.947-1.9c-10.06-.215-6.821-.347-11.947-1.221a32.894,32.894,0,0,1,0-4.4c3.115-.082,3.489,2.039,4.921,4.025,1.152-7.546-3.533-12.772-3.969-13.829,2.914-.367,5.315,2.555,5.758,3.814.245-8.566-13.085-25.1-13.085-25.1l-8.558-19.3-16.4-11.32-6.351-2.38v15.468l-19.58-20.575-13.673-7.232-12.706-1.448v11.158l-12.751,7.923-25.874,19.444-7.819,20.07S817.168,820.155,819.6,824.732Z" fill="#3c3f2e" stroke="#435eb5" stroke-width="0.2"/>
      <g id="hair_light">
        <path id="パス_43" data-name="パス 43" d="M820.276,780.742c1.535-9.644,13.1-19.522,21.549-14.011C841.954,766.4,822.216,778.042,820.276,780.742Z" fill="#73795d"/>
        <path id="パス_44" data-name="パス 44" d="M847.307,740.542c-1.218.817-3.946,6.622-1.056,19.779,4.266-2.556,4.906-2.523,5.934-2.677C851.989,756.941,847.207,741.291,847.307,740.542Z" fill="#73795d"/>
        <path id="パス_45" data-name="パス 45" d="M862.341,729.725c-1.42.1-7.172,15.467,0,25.568a52.432,52.432,0,0,1,4.587-3.589C862.077,741.677,863.514,737.382,862.341,729.725Z" fill="#73795d"/>
      </g>
      <path id="hair_medium" d="M961.931,825.378c-37.393,9.076-97.456-39.14-102.483-57.861-3.3,7.251,13.925,35.185,46.307,47.873-9.2-3.324-29.83-5.8-52.849-35.678-20.11,33.742-32.139,10.1-33.28,45.014a37.9,37.9,0,0,1,1.387-25.608c-1.662-.011-2.914.049-4.615,0,3.817-8.287,7.461-13.955,11.353-17.255-1.471-2.31-8.021-.736-7.316-1.248a30.9,30.9,0,0,1,21.377-13.886c-.793-.686-2.836-1.218-7.145-.908-1.07-4.007-.489-7.636-.365-13.044.13-.463,3.442,6.84,12.143,4.83a3.054,3.054,0,0,1,0,2.521s3.993-2.571,5.656-2.521c-3.3-5.5-5.883-18.843-4.539-16.822,4.832,7.69,13.367,9.673,14.776,13.227a10.652,10.652,0,0,1,3.818-2.215,45.5,45.5,0,0,1-3.818-21.972c4.227,5.592,25.606,13.625,30.536,18.986-.035-7.9,1.31-7.927,1.447-13.068,8.3,10.347,25.874,15.755,30.528,22.627.335-.516,1.592-4.627-1.181-9.2-.482-.433,10.445,2.2,9.349,16.648.216.113,5.512,2.04,9.572-5.586,1.546,6.2-2.926,13.846-2.926,13.846a19.7,19.7,0,0,1,12.517,6.579c.444.275-5.58,0-5.58,0s7.783,8.039,9.608,17.2a7.771,7.771,0,0,0-5.792-3.194,19.009,19.009,0,0,1,2.591,10.1s-.47.222,1.732-.549c-.034,2.4-3.279,9.531-8.139,11.177-.458.341-.479,4.924-1.358,5.337-.414.2-.052-5.107-.861-4.885a21,21,0,0,1-10.694-.452c-20.862-11.021-27.4-65.8-62.394-55.263,31.585-.117,40.216,40.515,45.347,47.289-21.437-20.16-29.251-23.475-39.441-31.9C918.559,827.765,958.866,825.514,961.931,825.378Z" fill="#525646"/>
      <g id="hair_dark_parts">
        <path id="hair_dark_p7" d="M933.188,796.971c4.031,6.371,4.65,14.952,4.65,14.952a13.645,13.645,0,0,1,5.533,0C941.987,807.49,938.587,800.806,933.188,796.971Z" fill="#3c3f2e"/>
        <path id="hair_dark_p6" d="M942.579,794.207s4.339,11.477,3.655,16.776a25.11,25.11,0,0,1,6.115-4.959C949.863,799.821,942.579,794.207,942.579,794.207Z" fill="#3c3f2e"/>
        <path id="hair_dark_p5" d="M852.78,775.22c-6.131,17.225-22.542,19.462-28.91,19.612C836.437,791.7,849.023,780.087,852.78,775.22Z" fill="#3c3f2e"/>
        <path id="hair_dark_p4" d="M844.94,775.881c-6.208,2.287-8.957,2.792-14.434,7.056C832.244,775.87,838.767,776.5,844.94,775.881Z" fill="#3c3f2e"/>
        <path id="hair_dark_p3" d="M846.839,761.564c-1.712.939-4.645,5.574-7.666,9.3,6.471-.734,14.09-2.644,15.737-4.523-5.686-.247-5.674-.011-8.373-.4a12.93,12.93,0,0,1,.3-4.377Z" fill="#3c3f2e"/>
        <path id="hair_dark_p2" d="M893.446,751.131c-3.674-4.206-11.454-7.548-16.188-7.872C884.953,748.558,883.046,750.815,893.446,751.131Z" fill="#3c3f2e"/>
        <path id="hair_dark_p1" d="M915.818,756.923c9.626,11.218,3.1,18.73,3.245,20.146,15.359,1,16.4,1.4,23.381,3.6-5.285-5.64-14.146-7.117-14.146-7.117s2.792.593,3.9-6.2c-1.626,1.615-1.7,1.942-6.533,3.566C925.753,769.577,927.214,763.552,915.818,756.923Z" fill="#3c3f2e"/>
      </g>
      <g id="hair_light_parts">
        <path id="パス_46" data-name="パス 46" d="M850.554,760.067c-7.3,5.74-5.827,5.08-15.94,8.846C845.846,769.361,849.177,763.013,850.554,760.067Z" transform="translate(-6.624 18.963)" fill="#73795d"/>
        <path id="パス_47" data-name="パス 47" d="M859.854,760.067c-6.6,7.54-19.957,14.01-25.311,16.017C844.9,777.158,856.853,765.364,859.854,760.067Z" transform="translate(-10.924 24.963)" fill="#73795d"/>
        <path id="パス_48" data-name="パス 48" d="M861.563,758.946c-5.667.2-21.654,12.112-22.745,15.164C847.051,767.986,858.182,762.654,861.563,758.946Z" transform="translate(331.884 1804.059) rotate(-104)" fill="#73795d"/>
        <path id="パス_49" data-name="パス 49" d="M857.52,761.248c-6.375-3.264-25.092,13.955-25.092,13.955S848.826,765.506,857.52,761.248Z" transform="translate(341.322 1794.166) rotate(-104)" fill="#73795d"/>
        <path id="パス_50" data-name="パス 50" d="M858.711,757.848s-14.044,17.884-32.687,24.937C852.3,777.778,858.711,757.848,858.711,757.848Z" transform="translate(345.122 1782.751) rotate(-104)" fill="#73795d"/>
        <path id="パス_51" data-name="パス 51" d="M857.884,736.692c6.911,31.941-35,46.652-52.189,49.224C830.9,786.323,871.214,768.288,857.884,736.692Z" transform="translate(355.904 1768.938) rotate(-104)" fill="#73795d"/>
        <path id="パス_52" data-name="パス 52" d="M861,763.137c-7.339,2.637-12.482,2.633-17.489,3.7-1.356.276-4.735,2.746-8.113,4.254,1.6,1.011,7.034,1.015,13.435-.975S853.6,767.372,861,763.137Z" transform="translate(365.884 1762.059) rotate(-104)" fill="#73795d"/>
        <path id="パス_53" data-name="パス 53" d="M857.049,758.023c-5.481,8.222-10.275,11.7-17.765,14.054,2.374.434,7.292,1.56,11.591-1.781C855.919,767.066,856.231,760.935,857.049,758.023Z" transform="translate(390.884 1792.059) rotate(-104)" fill="#73795d"/>
      </g>
    </g>
  </g>
</svg>
