<svg xmlns="http://www.w3.org/2000/svg" xmlns:xlink="http://www.w3.org/1999/xlink" width="97" height="96" viewBox="0 0 97 96">
  <defs>
    <linearGradient id="linear-gradient" x1="0.001" y1="1.34" x2="0.006" y2="1.34" gradientUnits="objectBoundingBox">
      <stop offset="0" stop-color="#387eb8"/>
      <stop offset="1" stop-color="#366994"/>
    </linearGradient>
    <linearGradient id="linear-gradient-2" x1="-0.346" y1="1.001" x2="-0.341" y2="1.001" gradientUnits="objectBoundingBox">
      <stop offset="0" stop-color="#ffe052"/>
      <stop offset="1" stop-color="#ffc331"/>
    </linearGradient>
  </defs>
  <g id="グループ_15" data-name="グループ 15" transform="translate(-1549 -254)">
    <rect id="長方形_5" data-name="長方形 5" width="96" height="96" transform="translate(1550 254)" fill="none"/>
    <g id="python" transform="translate(1549 252.7)">
      <path id="パス_8" data-name="パス 8" d="M47.653,1.3C23.283,1.3,24.8,11.873,24.8,11.873l.019,10.948H48.066V26.1H15.6S0,24.339,0,48.916,13.61,72.63,13.61,72.63h8.117V61.23S21.3,47.62,35.112,47.62H58.17s12.954.206,12.954-12.523V14.048C71.142,14.048,73.111,1.3,47.653,1.3ZM34.831,8.667a4.18,4.18,0,1,1-4.18,4.18A4.18,4.18,0,0,1,34.831,8.667Z" fill="url(#linear-gradient)"/>
      <path id="パス_9" data-name="パス 9" d="M155.94,201.514c24.37,0,22.852-10.573,22.852-10.573l-.019-10.948H155.528v-3.281h32.487s15.6,1.762,15.6-22.814S190,130.184,190,130.184h-8.117v11.4s.431,13.61-13.385,13.61H145.443s-12.954-.206-12.954,12.523v21.052C132.451,188.766,130.483,201.514,155.94,201.514Zm12.822-7.367a4.18,4.18,0,1,1,4.18-4.18,4.18,4.18,0,0,1-4.18,4.18Z" transform="translate(-107.612 -104.72)" fill="url(#linear-gradient-2)"/>
    </g>
  </g>
</svg>
