<svg xmlns="http://www.w3.org/2000/svg" width="88.948" height="157.359" viewBox="0 0 88.948 157.359">
  <g id="user_down_left" transform="translate(-439.052 -500)">
    <path id="パス_4" data-name="パス 4" d="M-282.321,636.579l-24.728-23.57,8.424-100,53.475-14.908,22.977,7.832V610.487l-12.5,22.473Z" transform="translate(748.174 18.719)" fill="#ddd" stroke="#ccc" stroke-width="4"/>
    <g id="長方形_1" data-name="長方形 1" transform="translate(476 500)" fill="#ddd" stroke="#ccc" stroke-width="4">
      <rect width="52" height="61" rx="26" stroke="none"/>
      <rect x="2" y="2" width="48" height="57" rx="24" fill="none"/>
    </g>
    <g id="パス_5" data-name="パス 5" transform="translate(486.42 507)" fill="#ddd">
      <path d="M 15.4580078125 13.943359375 C 11.47669792175293 13.943359375 7.749407768249512 13.20156002044678 4.962728023529053 11.85460948944092 C 2.444357872009277 10.63735008239746 0.9999977946281433 9.039829254150391 0.9999977946281433 7.4716796875 C 0.9999977946281433 5.903529644012451 2.444357872009277 4.306009769439697 4.962728023529053 3.088749647140503 C 7.749407768249512 1.741799712181091 11.47669792175293 0.9999997019767761 15.4580078125 0.9999997019767761 C 19.43931770324707 0.9999997019767761 23.16660690307617 1.741799712181091 25.95328712463379 3.088749647140503 C 28.47165870666504 4.306009769439697 29.91601753234863 5.903529644012451 29.91601753234863 7.4716796875 C 29.91601753234863 9.039829254150391 28.47165870666504 10.63735008239746 25.95328712463379 11.85460948944092 C 23.16660690307617 13.20156002044678 19.43931770324707 13.943359375 15.4580078125 13.943359375 Z" stroke="none"/>
      <path d="M 15.4580078125 2 C 11.6799373626709 2 8.013168334960938 2.72499942779541 5.397907257080078 3.989089965820312 C 3.270248413085938 5.017499923706055 1.999998092651367 6.319409370422363 1.999998092651367 7.4716796875 C 1.999998092651367 8.62394905090332 3.270248413085938 9.925859451293945 5.397907257080078 10.95426940917969 C 8.013168334960938 12.21835994720459 11.6799373626709 12.943359375 15.4580078125 12.943359375 C 19.2360782623291 12.943359375 22.90284729003906 12.21835994720459 25.51810836791992 10.95426940917969 C 27.64576721191406 9.925859451293945 28.91601753234863 8.62394905090332 28.91601753234863 7.4716796875 C 28.91601753234863 6.319409370422363 27.64576721191406 5.017499923706055 25.51810836791992 3.989089965820312 C 22.90284729003906 2.72499942779541 19.2360782623291 2 15.4580078125 2 M 15.4580078125 0 C 23.9952278137207 0 30.91601753234863 3.345190048217773 30.91601753234863 7.4716796875 C 30.91601753234863 11.59816932678223 23.9952278137207 14.943359375 15.4580078125 14.943359375 C 6.920787811279297 14.943359375 -1.9073486328125e-06 11.59816932678223 -1.9073486328125e-06 7.4716796875 C -1.9073486328125e-06 3.345190048217773 6.920787811279297 0 15.4580078125 0 Z" stroke="none" fill="#ccc"/>
    </g>
  </g>
</svg>
