<svg xmlns="http://www.w3.org/2000/svg" width="93.948" height="199.359" viewBox="0 0 93.948 199.359">
  <g id="user_up_left" transform="translate(-682.052 -458)">
    <path id="パス_6" data-name="パス 6" d="M-282.321,636.579l-24.728-23.57,8.424-100,53.475-14.908,22.977,7.832V610.487l-12.5,22.473Z" transform="translate(991.174 18.719)" fill="#fdd7ad" stroke="#363636" stroke-width="4"/>
    <g id="長方形_2" data-name="長方形 2" transform="translate(724 458)" fill="#fdd7ad" stroke="#363636" stroke-width="4">
      <rect width="52" height="111" rx="26" stroke="none"/>
      <rect x="2" y="2" width="48" height="107" rx="24" fill="none"/>
    </g>
    <g id="パス_7" data-name="パス 7" transform="translate(734.42 465)" fill="#fdc6ad">
      <path d="M 25.47851181030273 18.48711585998535 C 24.18870162963867 18.48714637756348 22.67134284973145 18.22969627380371 21.06489181518555 17.9571361541748 C 19.22725296020508 17.64534568786621 17.32705307006836 17.32293701171875 15.45801258087158 17.32293701171875 C 13.93241214752197 17.32293701171875 12.39492225646973 17.50220680236816 10.90805244445801 17.67557716369629 C 9.52352237701416 17.83701705932617 8.215782165527344 17.9894962310791 7.01290225982666 17.9894962310791 C 5.707492351531982 17.9894962310791 4.732272148132324 17.80997657775879 3.943832397460938 17.42454719543457 C 3.657782316207886 17.28537750244141 2.661982297897339 16.55558586120605 1.785772323608398 12.97253704071045 C 1.243792295455933 10.7562370300293 1.000002264976501 8.421586990356445 1.000002264976501 7.471676826477051 C 1.000002264976501 5.903526782989502 2.44436240196228 4.30600643157959 4.962732315063477 3.088746547698975 C 7.749402523040771 1.741796612739563 11.47670269012451 0.9999966025352478 15.45801258087158 0.9999966025352478 C 19.43932151794434 0.9999966025352478 23.16661262512207 1.741796612739563 25.95328140258789 3.088746547698975 C 28.47165298461914 4.30600643157959 29.91601181030273 5.903526782989502 29.91601181030273 7.471676826477051 C 29.91601181030273 7.572106838226318 29.9166316986084 7.692566394805908 29.9173526763916 7.830746650695801 C 29.92265319824219 8.849376678466797 29.93368148803711 10.96899700164795 29.70500183105469 13.0231761932373 C 29.35865211486816 16.13435745239258 28.67227172851562 17.23736572265625 28.2939624786377 17.61794662475586 C 27.70624160766602 18.21129608154297 26.81201171875 18.48707580566406 25.47851181030273 18.48711585998535 Z" stroke="none"/>
      <path d="M 15.45801258087158 1.999996185302734 C 11.679931640625 1.999996185302734 8.013172149658203 2.724996566772461 5.397912979125977 3.989086151123047 C 3.270252227783203 5.017497062683105 2.000001907348633 6.319406509399414 2.000001907348633 7.471676826477051 C 2.000001907348633 8.343856811523438 2.226222991943359 10.51750659942627 2.729143142700195 12.61920642852783 C 3.397089004516602 15.41056346893311 4.1480712890625 16.38423919677734 4.384265899658203 16.52675247192383 C 5.021917343139648 16.83811950683594 5.881801605224609 16.9894962310791 7.012903213500977 16.9894962310791 C 8.157672882080078 16.9894962310791 9.437381744384766 16.84028625488281 10.79223251342773 16.68230628967285 C 12.30747222900391 16.5056266784668 13.87430191040039 16.32293701171875 15.45801258087158 16.32293701171875 C 17.41134262084961 16.32293701171875 19.35382270812988 16.65250778198242 21.23234176635742 16.97122573852539 C 22.79602241516113 17.23652648925781 24.27298164367676 17.48711585998535 25.47854232788086 17.48711585998535 C 26.1385612487793 17.48711585998535 27.07472229003906 17.4278564453125 27.58474159240723 16.9129467010498 C 27.71281242370605 16.78410720825195 28.36902236938477 15.98574638366699 28.71114158630371 12.91252708435059 C 28.93339157104492 10.91609668731689 28.92257308959961 8.835726737976074 28.91736221313477 7.835947036743164 C 28.9166316986084 7.695766448974609 28.91601181030273 7.573566436767578 28.91601181030273 7.471676826477051 C 28.91601181030273 6.319406509399414 27.64576148986816 5.017497062683105 25.51810264587402 3.989086151123047 C 22.9028434753418 2.724996566772461 19.23608207702637 1.999996185302734 15.45801258087158 1.999996185302734 M 15.45801258087158 -3.814697265625e-06 C 23.99523162841797 -3.814697265625e-06 30.91601181030273 3.345186233520508 30.91601181030273 7.471676826477051 C 30.91601181030273 9.118146896362305 31.08698272705078 16.22665596008301 29.00317192077637 18.32293701171875 C 28.13838577270508 19.19601631164551 26.91501808166504 19.48711395263672 25.47853851318359 19.48711395263672 C 22.60531425476074 19.48711395263672 18.87869644165039 18.32293701171875 15.45801258087158 18.32293701171875 C 12.59536743164062 18.32293701171875 9.600255966186523 18.989501953125 7.012897491455078 18.989501953125 C 5.718982696533203 18.989501953125 4.527397155761719 18.82292175292969 3.504642486572266 18.32293701171875 C 1.003501892089844 17.10613632202148 1.9073486328125e-06 9.522546768188477 1.9073486328125e-06 7.471676826477051 C 1.9073486328125e-06 3.345186233520508 6.920782089233398 -3.814697265625e-06 15.45801258087158 -3.814697265625e-06 Z" stroke="none" fill="#363636"/>
    </g>
  </g>
</svg>
